<svg xmlns="http://www.w3.org/2000/svg" xml:space="preserve" viewBox="0 0 1000 861"><path fill="#0A0A0A" d="M1001 309v553H1V1h1000zM121.81 763.763c1.014.597 2.028 1.194 3.427 2.436 1.125.192 2.25.55 3.375.55 57.388.037 114.775.053 172.163-.01 1.446-.001 2.891-.915 4.932-1.978.557-5.274 1.114-10.548 2.042-16.219-.546-.535-1.09-1.07-2.3-1.77-.43-.152-.86-.303-1.75-1.03-1.133-.173-2.267-.495-3.401-.496-57.347-.044-114.694-.07-172.04-.02-1.463.001-2.925.877-5.018 1.657a65 65 0 0 1-2.526 2.408c.225 4.624.45 9.248 1.095 14.472m589.619-191.869c14.367-9.058 28.608-18.323 43.126-27.131 31.904-19.357 64.404-37.631 98.664-52.572 3.334-1.455 4.312-3.227 3.255-6.929-5.44-19.05-10.753-38.142-15.772-57.307-1.275-4.87-3.654-8.01-8.363-9.544-2.051-.667-4.271-1.197-5.99-2.397-1.813-1.265-4.056-3.04-4.5-4.963-3.813-16.549-7.363-33.161-10.704-49.812-.477-2.376.002-5.332 1.035-7.557 4.697-10.117 9.746-20.07 14.677-30.079 14.426-29.276 28.91-58.524 43.179-87.877 1.12-2.304 1.49-5.497.947-8.005-5.844-27.014-12.669-53.838-17.696-80.998-3.019-16.312-9.374-29.677-22.223-40.26-4.941-4.07-9.509-9.07-12.853-14.503-7.32-11.893-13.846-24.282-20.475-36.587-1.793-3.327-4.05-5.244-7.728-6.321a11080 11080 0 0 1-89.037-26.48c-6.755-2.039-13.21-3.382-20.5-2.101-37.733 6.63-75.56 12.722-113.323 19.192-3.305.566-6.599 2.134-9.503 3.89a116 116 0 0 0-13.057 9.192c-3.475 2.82-7.169 3.622-11.53 3.618-103.99-.083-207.98-.084-311.968-.041-7.48.003-15.329-.938-22.377.932-32.201 8.544-58.365 26.314-77.203 54.053-2.354 3.466-3.71 8.324-3.732 12.547-.256 47.327-.157 94.656-.157 141.985l-.003 320.47v9.177c2.032.119 3.49.275 4.948.279 18.466.05 36.933.104 55.4.106 118.156.017 236.313.033 354.47-.003 5.757-.002 11.513-.495 17.27-.76 1.156-6.029 3.083-12.027 3.326-18.093.836-20.794 1.2-41.611 1.452-62.423.051-4.223 1.05-7.192 4.589-9.734 4.583-3.292 8.843-7.069 12.996-10.903 1.128-1.041 2.337-3.465 1.869-4.538-5.135-11.773-7.483-25-18.062-33.996-3-2.55-5.438-3.794-9.268-2.315-12.4 4.789-24.447 5.655-35.733-3.268-2.961-2.341-6.898-3.43-9.936-5.697-3.553-2.65-8.234-5.377-9.574-9.097-3.681-10.223-7.772-20.882-3.113-31.992 1.948-4.646 1.523-8.087-2.686-11.224-4.859-3.621-6.493-8.537-4.982-14.589.715-2.86.692-5.905 1.044-9.261-6.863-1.037-8.31-7.205-11.794-11.519-5.003-6.192-.351-10.94 1.934-15.991 1.939-4.287 4.348-8.36 6.515-12.466-2.548-.66-4.796-.662-6.272-1.73a246 246 0 0 1-16.059-12.645c-1.134-.974-2.066-3.523-1.601-4.807 4.288-11.843 7.47-24.414 13.792-35.107 7.655-12.949 18.137-24.212 27.152-36.385 1.405-1.896 2.446-4.92 2.052-7.137-1.537-8.674-3.943-17.192-5.531-25.859-.521-2.842-.402-6.405.884-8.88 12.44-23.934 24.917-47.857 38.001-71.44 4.492-8.097 6.923-15.44 3.847-24.794-4.065-12.362.327-22.456 11.034-29.884 6.014-4.173 11.731-8.778 17.805-12.856 2.518-1.69 5.514-3.133 8.471-3.633 36.787-6.22 73.598-12.31 110.435-18.227 3.643-.585 7.725-.58 11.228.44a6111 6111 0 0 1 88.522 26.504c2.67.822 5.378 3.306 6.893 5.747 3.768 6.07 6.748 12.625 10.249 18.87 3.485 6.216 6.501 12.895 11.014 18.29 6.812 8.146 14.823 15.28 22.137 23.02 1.511 1.6 2.653 3.864 3.192 6.016 3.48 13.889 6.77 27.826 10.069 41.76 1.048 4.43 1.931 8.9 2.978 13.76-3.827.39-6.822.504-9.74 1.04-3.901.716-5.482-.7-6.463-4.597-4.268-16.952-9.423-33.695-13.253-50.739-2.804-12.479-10.905-19.857-21.543-24.411-29.228-12.513-58.767-24.3-88.17-36.404-4.19-1.724-8.309-3.619-13.74-5.995l35.93-3.77-.02-1.411c-.846-.428-1.655-.963-2.543-1.267-12.127-4.16-24.225-8.412-36.431-12.329-2.904-.932-6.266-1.334-9.265-.907-9.396 1.338-18.752 3.03-28.048 4.952-2.239.463-4.925 1.842-6.146 3.65-8.08 11.971-19.44 20.465-30.343 29.47-2.123 1.755-4.135 3.644-6.826 6.028 2.425.863 3.897 1.51 5.433 1.915 15.62 4.124 31.227 8.302 46.894 12.236 3.759.944 3.338 3.431 3.377 6.119.044 3.026-1.814 3.58-4.231 3.58H653.13c-.426 4.225-.848 8.152-1.215 12.085-1.203 12.902-1.707 25.894-7.941 37.807-2.846 5.437-4.69 11.39-7.257 16.986-1.488 3.245-1.058 5.447 1.818 7.717 6.792 5.358 13.477 10.868 19.943 16.61 1.672 1.486 3.171 3.977 3.396 6.146 1.204 11.597 1.959 23.24 2.913 34.865.307 3.735.749 7.46 1.239 12.263 1.538-1.874 2.359-2.832 3.134-3.826 6.14-7.872 12.12-15.877 18.52-23.532 1.462-1.75 4.26-2.819 6.625-3.282 4.338-.85 8.865-.717 13.214-1.527 10.142-1.886 20.185-4.325 30.356-6.013 2.874-.477 6.595.012 8.984 1.537 6.841 4.368 13.495 9.152 19.618 14.468 2.98 2.588 5.875 6.475 6.62 10.21 2.435 12.206 4.851 24.575 5.312 36.955.28 7.5 1.459 13.848 5.547 20.026 3.356 5.071 6.036 10.59 9.463 16.708 1.39-2.468 2.329-3.988 3.13-5.578 13.8-27.354 27.594-54.712 41.364-82.082 5.13-10.197 5.075-10.134 16.1-6.462 2.94.979 3.687 2.219 2.25 5.065-3.452 6.834-6.658 13.792-10.066 20.65-14.377 28.928-29.022 57.726-43.001 86.845-2.897 6.034-7.293 4.345-11.589 5.016-4.125.645-4.782-2.223-6.016-5.085-2.768-6.418-5.695-12.786-8.948-18.97-2.508-4.768-5.61-9.223-8.195-13.407-8.563 7.734-16.3 15.323-24.671 22.129-10.798 8.778-21.073 18.504-35.307 21.96-8.625 2.094-14.53-.645-18.13-9.42 1.18-.142 2.295-.458 3.381-.378 12.881.947 23.964-2.82 33.02-12.24 1.601-1.665 3.62-2.93 5.45-4.374 11.827-9.33 22.79-19.512 30.852-32.39 1.633-2.61 3.319-5.748 3.383-8.677.266-12.072-1.383-23.95-6.054-35.201-2.7-6.505-16.46-15.727-22.469-14.472-15.886 3.319-32.619 5.24-42.368 21.058-1.363 2.212-2.928 2.535-4.612.136-.502-.715-1.454-1.115-2.766-2.072-5.178 8.315-10.144 16.351-15.196 24.334-.76 1.2-1.736 2.754-2.924 3.114-6.744 2.04-11.874-2.275-11.09-9.079.058-.496.06-1.01.196-1.485.934-3.273-.2-5.16-3.652-5.488-3.482-.331-4.562-2.295-4.778-5.69-.815-12.803-1.75-25.607-3.083-38.364-.275-2.638-1.856-5.77-3.855-7.485-7.448-6.387-15.24-12.386-23.075-18.302-3.11-2.35-4.157-4.77-2.744-8.518 3.993-10.594 7.472-21.393 11.757-31.864 5.275-12.893 9.472-25.95 9.235-40.04-.028-1.639-.948-4.445-1.954-4.694-7.382-1.832-15.102-5.062-22.323-4.27-21.222 2.325-41.856 7.914-61.777 15.75-2.097.825-4.16 2.85-5.289 4.853-12.587 22.332-24.992 44.766-37.421 67.187-.655 1.182-1.079 2.493-2.097 4.892 3.122-.814 5.08-1.072 6.822-1.83 4.117-1.791 8.382-3.427 12.14-5.826 11.615-7.415 26.564 1.756 32.128 9.39-15.309 4.834-30.853 9.744-46.41 14.647.726 7.743.731 7.676 8.214 8.246 1.957.149 3.942.665 5.79 1.347a1014 1014 0 0 1 22.406 8.55c3.59 1.423 7.062 3.147 10.587 4.735l-.251 1.468c-1.491.232-2.982.663-4.473.66-4.497-.009-9.024.102-13.483-.37-5.787-.613-9.494 1.098-11.149 7.088-.53 1.915-2.751 3.363-4.199 5.025-1.758-1.593-3.878-2.936-5.194-4.836-2.197-3.173-3.88-6.703-6.126-10.697-5.194 6.67-9.872 12.504-14.366 18.478-10.296 13.687-21.483 26.802-27.944 42.987-3.08 7.711-2.505 9.579 4.742 13.376 1.548.81 3.48 1.096 5.26 1.21 4.156.266 8.339.117 12.487.436 6.15.472 8.19 4.143 5.315 9.503-2.261 4.218-4.763 8.307-7.377 12.833 1.534.58 2.722 1.076 3.938 1.484 8.05 2.697 16.131 5.302 24.138 8.118 1.816.64 3.922 1.612 4.965 3.087 4.414 6.248 8.582 12.678 12.62 19.179 1.675 2.698.393 4.723-2.657 4.726-3.448.004-6.888-.764-10.346-1.004-7.923-.55-15.85-1.04-23.782-1.435-3.398-.17-5.32 2.245-4.753 5.029.605 2.969 2.1 6.405 4.343 8.264 5.412 4.485 6.482 9.36 4.423 15.884-1.64 5.196-2.536 10.687-3.2 16.116-.717 5.844 1.372 11.048 6.168 14.506 7.151 5.156 14.934 7.77 23.952 4.9 35.067-11.156 70.208-22.078 105.227-33.38 3.186-1.029 6.448-3.632 8.375-6.407 5.504-7.92 10.272-16.348 15.503-24.464.821-1.274 2.88-3.024 3.796-2.737 3.362 1.054 6.483 2.874 10.215 4.653-6.685 11.392-13.02 21.935-19.069 32.639-2.1 3.716-4.864 6-8.87 7.43-22.58 8.06-45.104 16.283-67.634 24.486-5.026 1.83-9.999 3.806-15.88 6.052 5.58 5.2 10.53 9.396 14.95 14.091 2.638 2.803 5.156 6.117 6.507 9.667 6.664 17.5 10.644 36.097 22.802 51.238 5.259 6.548 9.537 13.885 14.34 20.98 1.26-.771 2.13-1.232 2.925-1.8 13.4-9.603 26.703-19.344 40.202-28.808 41.381-29.01 84.816-54.59 130.033-77.132 3.573-1.781 4.269-3.694 3.49-7.356-3.812-17.914-7.341-35.89-11.114-53.812-.624-2.962-1.053-5.127 2.89-5.798 3.535-.602 5.761-.635 6.648 3.928 3.398 17.489 7.347 34.87 10.828 52.344.77 3.866 2.173 6.163 6.21 7.226 4.031 1.063 7.82 3.048 12.929 5.121-80.751 49.466-157.039 102.387-229.436 162.568 1.885.385 2.344.56 2.804.56 23.664.043 47.329.137 70.992-.004 2.306-.014 4.885-1.055 6.858-2.349 10.581-6.94 21.01-14.113 32.092-21.606m-187.214 80.42c-5.745.996-4.303 5.634-4.31 9.141-.106 54.962-.1 109.924-.101 164.886 0 8.767.863 9.55 9.832 9.553q73.698.022 147.397.052c7.836.003 8.745-.821 8.75-8.461.034-55.962.05-111.924.056-167.886 0-6.045-1.236-7.279-7.348-7.283-51.13-.032-102.262-.044-154.276-.002M882.082 718.5c.03-18.324.075-36.648.081-54.972.002-5.863-1.266-7.339-6.855-7.346-33.814-.046-67.629.017-101.443-.033-4.35-.006-5.897 1.998-5.77 6.157.161 5.325-.012 10.66-.018 15.99-.01 7.347.565 7.913 7.97 7.912 23.154-.001 46.308-.011 69.463 0 1.614.002 3.229.158 5.09.254v37.189h-5.619c-22.32.012-44.64.013-66.96.042-6.689.01-7.634.777-7.642 7.387-.038 29.314-.143 58.63.151 87.942.16 16.002 2.716 18.43 18.81 18.56 29.648.236 59.3.119 88.95.247 4.795.02 6.538-2.257 6.439-6.762-.125-5.661-.015-11.327-.074-16.99-.065-6.341-.902-7.13-7.317-7.132q-34.732-.008-69.463-.011h-5.52v-53.362h6.776c21.654-.002 43.308.014 64.961-.017 7.288-.01 7.89-.624 7.948-8.069.066-8.661.03-17.324.042-26.986M214.5 652.245h-25.147v-5.369c-10.1 0-19.887-.08-29.67.099-1.263.023-2.824 1.124-3.7 2.18-8.53 10.288-19.507 16.945-31.663 22.032-1.519.636-3.395 2.622-3.488 4.085-.42 6.639-.319 13.315-.284 19.977.016 3.23 1.814 3.964 4.689 2.969 2.124-.736 4.301-1.321 7.133-2.18 0 12.483.032 24.124-.01 35.765-.032 9.186.251 9.477 9.512 9.475q73.731-.014 147.462.003c6 .001 6.899-.783 6.92-6.942.06-16.828.051-33.657.058-50.485.002-5.8-.748-6.59-6.65-6.642-6.75-.061-13.503-.014-20.883-.014 2.977-5.848 5.58-11 8.219-16.134 3.875-7.537 3.118-8.789-5.514-8.8-18.661-.025-37.323-.017-56.984-.019M395.017 837.38c22.319.053 44.638.093 66.957.163 11.659.036 23.316.15 34.975.174 5.42.011 6.52-1.162 6.485-6.357-.04-5.662.003-11.325-.007-16.987-.012-6.091-.85-6.956-6.856-7.08-1.498-.032-2.997.013-4.496.01l-93.943-.203c-10.83-.024-21.151-2.532-31.003-6.824-1.615-.704-3.777-3.43-3.486-4.73 3.5-15.647 2.47-31.505 2.63-47.297.162-15.99.107-31.98.158-47.97.009-2.993-.09-5.848-4.227-5.859-13.822-.036-27.645-.107-41.467-.128-2.997-.004-4.646 1.478-4.638 4.603.019 6.662-.025 13.325.028 19.987.027 3.523 2.018 5.064 5.43 5.045 4.112-.023 8.225-.006 12.974-.006 0 4.783.056 9.065-.01 13.346-.242 15.814 1.212 31.907-1.273 47.365-2.56 15.923-8.843 31.266-13.762 46.78-1.877 5.92-1.691 6.581 4.64 6.582 6.163 0 12.345-.36 18.483.015 5.69.347 9.404-1.272 10.361-7.3.51-3.208 2.18-3.532 4.991-2.235 11.456 5.283 23.48 8.384 37.056 8.906m-145.518.13c13.158 0 26.316-.021 39.474.01 6.285.016 7.232-.917 7.233-7.19.003-17.99-.097-35.983.157-53.97.067-4.742-1.844-6.25-6.175-6.137-5.827.152-11.66.135-17.49.14-44.31.042-88.619.046-132.928.13-6.24.013-6.962.8-6.988 6.928-.075 17.324-.065 34.648-.074 51.971-.003 7.486.756 8.237 8.347 8.23 35.815-.031 71.63-.073 108.444-.113M486.103 706.5c.04-15.32.034-30.64.153-45.959.031-4.112-1.044-6.704-5.83-6.693-33.635.074-67.27.085-100.906.01-3.681-.007-5.184 1.697-5.266 5.042a775 775 0 0 0-.203 15.981c-.028 7.24.737 8.036 7.981 8.04 22.48.01 44.959-.022 67.438-.037h5.935c0 4.275-.006 7.757.001 11.238.057 28.306-.132 56.615.286 84.915.189 12.843 7.227 19.993 19.98 21.271 7.269.729 14.627.606 21.947.79 3.4.086 5.328-1.543 5.335-5.103.013-6.66.017-13.321.061-19.982.02-3.097-1.54-4.593-4.556-4.696-1.331-.046-2.664-.046-3.995-.07-7.615-.137-8.406-.856-8.412-8.297-.016-18.484.029-36.967.051-56.45m214.602 18.76c-.526 5.018 1.856 6.981 6.73 6.686 3.249-.196 6.518-.037 9.966-.037v40.227c.003 19.986.032 39.972-.008 59.958-.008 3.834.772 7.013 5.527 5.972 12.681-2.773 25.31-5.785 37.954-8.726 2.869-.667 3.97-2.507 3.932-5.472-.109-8.326-.074-16.656.022-24.982.047-4.096-1.913-5.388-5.677-4.541-3.321.747-6.634 1.531-10.491 2.424 0-2.29-.002-3.752 0-5.214.041-27.648.069-55.296.142-82.943.009-3.401-.1-6.539-4.703-6.556-12.657-.046-25.314-.062-37.97-.168-4.146-.035-5.52 2.04-5.412 5.94.151 5.491.007 10.99-.012 17.432m-327.713 6.217c-.01 1.834-.036 3.667-.03 5.5.027 6.932.814 7.717 7.774 7.735 4.939.012 9.877.002 15.099.002.084 1.69.187 2.819.188 3.948.019 14.998-.01 29.997.048 44.996.024 6.376.949 7.286 7.161 7.363 5.166.064 10.333.055 15.499.016 6.345-.048 7.482-1.2 7.497-7.7.03-13.831.013-27.663.015-41.494v-7.144c6.065 0 11.383-.113 16.694.035 4.402.122 6.483-1.666 6.332-6.2-.166-4.993-.048-9.997-.056-14.997-.009-6.533-.48-7.038-7.099-7.105-5.24-.052-10.48-.01-15.974-.01 0-7.57-.07-14.378.025-21.183.063-4.479-1.532-6.835-6.455-6.615-5.653.253-11.33-.052-16.995 0-5.51.05-6.648 1.23-6.69 6.844-.052 6.785-.013 13.571-.013 20.958-3.218 0-6.001.011-8.785-.001-17.429-.08-13.919-.394-14.235 15.052M834.007 545.46c14.528-6.211 29.076-12.375 43.549-18.712 1.37-.6 3.23-2.3 3.219-3.475-.062-7.218-3.937-9.844-10.56-7.57-.472.161-.93.365-1.398.538-33.742 12.419-65.219 29.276-95.375 48.714-2.027 1.307-3.938 2.793-6.11 4.343 1.577 1.836 2.905 3.11 3.91 4.602 3.053 4.531 5.929 4.253 10.598 1.44 16.946-10.212 34.291-19.762 52.167-29.88m-242.16-22.901-7.905-13.693c-10.298 5.595-10.987 7.33-11.101 17.832-.183 16.773-.904 33.54-1.363 50.31-.028 1.023.247 2.054.424 3.406 11.252-9.417 22.04-18.497 32.9-27.491 2.176-1.803 2.45-3.283.906-5.855-4.703-7.835-9.049-15.885-13.861-24.51m156.26 168.224c4.185.208 6.017-1.672 4.75-5.783-3.225-10.464-6.396-20.953-10.06-31.265-.607-1.707-3.537-3.53-5.493-3.65-7.281-.441-14.605-.12-21.91-.234-4.297-.067-5.181 1.921-3.993 5.66 3.264 10.28 6.524 20.56 9.655 30.881.98 3.227 2.834 4.448 6.2 4.36 6.638-.17 13.285 0 20.851.03m-399.602-5.615c4.164.017 8.329.086 12.493.035 3.588-.044 4.737-2.045 3.785-5.307-2.658-9.104-5.192-18.255-8.258-27.222-.629-1.84-3.291-4.107-5.13-4.214-7.802-.452-15.647-.188-23.476-.137-3.632.024-4.561 1.732-3.46 5.19 1.967 6.182 3.668 12.45 5.445 18.693 4.382 15.397 1.523 12.749 18.6 12.962M922.179 81.713c-.518-10.596-6.333-17.382-14.959-23.061-9.28-6.11-25.703-5.086-35.297 4.523-9.36 9.375-10.935 24.423-3.7 35.306 6.81 10.24 20.762 14.901 33.643 11.238 11.93-3.394 19.658-13.733 20.313-28.006m-12.007 562.851c-12.397 4.3-15.04 17.063-12.534 26.008 2.712 9.677 12.897 15.796 23.406 14.318 10.023-1.409 17.925-10.494 18.026-20.727.145-14.544-12.92-23.77-28.898-19.599"/><path fill="#EDEDED" d="M711.128 572.094c-10.781 7.293-21.21 14.466-31.792 21.406-1.973 1.294-4.552 2.335-6.858 2.349-23.663.14-47.328.047-70.992.005-.46 0-.92-.176-2.804-.56 72.397-60.182 148.685-113.103 229.436-162.569-5.109-2.073-8.898-4.058-12.93-5.12-4.036-1.064-5.439-3.36-6.21-7.227-3.48-17.474-7.43-34.855-10.827-52.344-.887-4.563-3.113-4.53-6.649-3.928-3.942.671-3.513 2.836-2.89 5.798 3.774 17.923 7.303 35.898 11.115 53.812.779 3.662.083 5.575-3.49 7.356-45.217 22.542-88.652 48.122-130.033 77.132-13.499 9.464-26.802 19.205-40.202 28.807-.794.57-1.666 1.03-2.926 1.8-4.802-7.094-9.08-14.43-14.339-20.98-12.158-15.14-16.138-33.738-22.802-51.237-1.351-3.55-3.869-6.864-6.508-9.667-4.42-4.695-9.37-8.89-14.95-14.091 5.882-2.246 10.855-4.222 15.881-6.052 22.53-8.203 45.054-16.425 67.635-24.486 4.005-1.43 6.77-3.714 8.87-7.43 6.048-10.704 12.383-21.247 19.068-32.639-3.732-1.779-6.853-3.6-10.215-4.653-.917-.287-2.975 1.463-3.796 2.737-5.231 8.116-9.999 16.544-15.503 24.464-1.927 2.775-5.189 5.378-8.375 6.407-35.019 11.302-70.16 22.224-105.227 33.38-9.018 2.87-16.8.256-23.952-4.9-4.796-3.458-6.885-8.662-6.169-14.506.665-5.429 1.56-10.92 3.2-16.116 2.06-6.523.99-11.4-4.422-15.884-2.244-1.86-3.738-5.295-4.343-8.264-.567-2.784 1.355-5.198 4.753-5.03 7.931.396 15.86.886 23.782 1.436 3.458.24 6.898 1.008 10.346 1.004 3.05-.003 4.332-2.028 2.656-4.726-4.037-6.501-8.205-12.931-12.62-19.179-1.042-1.475-3.148-2.448-4.964-3.087-8.007-2.816-16.089-5.42-24.138-8.118-1.216-.408-2.404-.903-3.938-1.484 2.614-4.526 5.116-8.615 7.377-12.833 2.874-5.36.835-9.03-5.315-9.503-4.148-.319-8.331-.17-12.486-.436-1.781-.114-3.713-.4-5.26-1.21-7.248-3.797-7.822-5.665-4.743-13.376 6.461-16.185 17.648-29.3 27.944-42.987 4.494-5.974 9.172-11.809 14.366-18.478 2.245 3.994 3.929 7.524 6.126 10.697 1.316 1.9 3.436 3.243 5.194 4.836 1.448-1.662 3.67-3.11 4.2-5.025 1.654-5.99 5.36-7.7 11.148-7.088 4.459.472 8.986.361 13.483.37 1.49.003 2.982-.428 4.473-.66l.251-1.468c-3.525-1.588-6.997-3.312-10.587-4.735a1014 1014 0 0 0-22.405-8.55c-1.849-.682-3.834-1.198-5.79-1.347-7.484-.57-7.49-.503-8.209-8.243 15.55-4.906 31.095-9.816 46.404-14.65-5.564-7.634-20.513-16.805-32.128-9.39-3.758 2.399-8.023 4.035-12.14 5.826-1.741.758-3.7 1.016-6.822 1.83 1.018-2.399 1.442-3.71 2.097-4.892 12.429-22.42 24.834-44.855 37.421-67.187 1.13-2.004 3.192-4.028 5.29-4.853 19.92-7.836 40.554-13.425 61.776-15.75 7.22-.792 14.94 2.438 22.323 4.27 1.006.25 1.926 3.055 1.954 4.693.237 14.09-3.96 27.148-9.235 40.041-4.285 10.471-7.764 21.27-11.757 31.864-1.413 3.749-.367 6.169 2.744 8.518 7.836 5.916 15.627 11.915 23.075 18.302 2 1.715 3.58 4.847 3.855 7.485 1.333 12.757 2.268 25.56 3.083 38.364.216 3.395 1.296 5.359 4.778 5.69 3.453.328 4.586 2.215 3.652 5.488-.135.475-.138.989-.195 1.485-.785 6.804 4.345 11.118 11.09 9.079 1.187-.36 2.164-1.914 2.923-3.114 5.052-7.983 10.018-16.019 15.196-24.334 1.312.957 2.264 1.357 2.766 2.072 1.684 2.4 3.249 2.076 4.612-.136 9.75-15.818 26.482-17.74 42.368-21.058 6.01-1.255 19.768 7.967 22.469 14.472 4.671 11.251 6.32 23.13 6.054 35.2-.064 2.93-1.75 6.068-3.383 8.677-8.062 12.88-19.025 23.06-30.851 32.391-1.83 1.444-3.85 2.709-5.45 4.374-9.057 9.42-20.14 13.187-33.02 12.24-1.087-.08-2.203.236-3.381.378 3.6 8.775 9.504 11.514 18.13 9.42 14.233-3.456 24.508-13.182 35.306-21.96 8.372-6.806 16.108-14.395 24.671-22.129 2.585 4.184 5.687 8.64 8.195 13.407 3.253 6.184 6.18 12.552 8.948 18.97 1.234 2.862 1.89 5.73 6.016 5.085 4.296-.67 8.692 1.018 11.589-5.016 13.979-29.119 28.624-57.917 43.001-86.846 3.408-6.857 6.614-13.815 10.066-20.65 1.437-2.845.69-4.085-2.25-5.064-11.025-3.672-10.97-3.735-16.1 6.462a84448 84448 0 0 1-41.363 82.082c-.802 1.59-1.74 3.11-3.131 5.578-3.427-6.118-6.107-11.637-9.463-16.708-4.088-6.178-5.267-12.526-5.547-20.026-.46-12.38-2.877-24.75-5.312-36.955-.745-3.735-3.64-7.622-6.62-10.21-6.123-5.316-12.777-10.1-19.618-14.468-2.389-1.525-6.11-2.014-8.984-1.537-10.17 1.688-20.214 4.127-30.356 6.013-4.35.81-8.876.677-13.214 1.527-2.364.463-5.163 1.532-6.626 3.282-6.4 7.655-12.38 15.66-18.52 23.532-.774.994-1.595 1.952-3.133 3.826-.49-4.803-.932-8.528-1.24-12.263-.953-11.624-1.708-23.268-2.912-34.865-.225-2.17-1.724-4.66-3.396-6.145-6.466-5.743-13.151-11.253-19.943-16.611-2.876-2.27-3.306-4.472-1.818-7.717 2.567-5.596 4.41-11.549 7.257-16.986 6.234-11.913 6.738-24.905 7.941-37.807.367-3.933.789-7.86 1.215-12.086h10.316c2.417 0 4.275-.553 4.231-3.58-.04-2.687.382-5.174-3.377-6.118-15.667-3.934-31.274-8.112-46.894-12.236-1.536-.406-3.008-1.052-5.433-1.915 2.691-2.384 4.703-4.273 6.826-6.028 10.903-9.005 22.263-17.499 30.343-29.47 1.221-1.808 3.907-3.187 6.146-3.65 9.296-1.922 18.652-3.614 28.048-4.952 2.999-.427 6.36-.025 9.265.907 12.206 3.917 24.304 8.17 36.431 12.329.888.304 1.697.84 2.543 1.267l.02 1.41-35.93 3.771c5.431 2.376 9.55 4.27 13.74 5.995 29.403 12.105 58.942 23.89 88.17 36.404 10.638 4.554 18.74 11.932 21.543 24.411 3.83 17.044 8.985 33.787 13.253 50.739.981 3.898 2.562 5.313 6.463 4.597 2.918-.536 5.913-.65 9.74-1.04-1.047-4.86-1.93-9.33-2.978-13.76-3.299-13.934-6.588-27.871-10.069-41.76-.539-2.152-1.68-4.416-3.192-6.016-7.314-7.74-15.325-14.874-22.137-23.02-4.513-5.395-7.529-12.074-11.014-18.29-3.501-6.245-6.481-12.8-10.25-18.87-1.514-2.441-4.222-4.925-6.892-5.747a6111 6111 0 0 0-88.522-26.504c-3.503-1.02-7.585-1.025-11.228-.44a13582 13582 0 0 0-110.435 18.227c-2.957.5-5.953 1.943-8.471 3.633-6.074 4.078-11.79 8.683-17.805 12.856-10.707 7.428-15.1 17.522-11.034 29.884 3.076 9.353.645 16.697-3.847 24.793-13.084 23.584-25.562 47.507-38 71.44-1.287 2.476-1.406 6.04-.885 8.881 1.588 8.667 3.994 17.185 5.531 25.859.394 2.218-.647 5.241-2.052 7.137-9.015 12.173-19.497 23.436-27.152 36.385-6.321 10.693-9.504 23.264-13.792 35.107-.465 1.284.467 3.833 1.601 4.807a246 246 0 0 0 16.06 12.645c1.475 1.068 3.723 1.07 6.271 1.73-2.167 4.105-4.576 8.18-6.515 12.466-2.285 5.052-6.937 9.799-1.934 15.991 3.485 4.314 4.931 10.482 11.794 11.519-.352 3.356-.329 6.4-1.044 9.261-1.511 6.052.123 10.968 4.982 14.589 4.21 3.137 4.634 6.578 2.686 11.224-4.66 11.11-.568 21.769 3.113 31.992 1.34 3.72 6.021 6.447 9.574 9.097 3.038 2.268 6.975 3.356 9.936 5.697 11.286 8.923 23.332 8.057 35.733 3.268 3.83-1.479 6.269-.236 9.268 2.315 10.579 8.997 12.927 22.223 18.062 33.996.468 1.073-.741 3.497-1.869 4.538-4.153 3.834-8.413 7.611-12.996 10.903-3.54 2.542-4.538 5.51-4.589 9.734-.252 20.812-.616 41.629-1.452 62.423-.243 6.066-2.17 12.064-3.326 18.093-5.757.265-11.513.758-17.27.76-118.157.036-236.314.02-354.47.003-18.467-.002-36.934-.057-55.4-.106-1.458-.004-2.916-.16-4.948-.279v-9.178l.003-320.469c0-47.329-.099-94.658.157-141.985.023-4.223 1.378-9.081 3.732-12.547 18.838-27.74 45.002-45.51 77.203-54.053 7.048-1.87 14.897-.93 22.377-.932 103.989-.043 207.978-.042 311.967.041 4.362.004 8.056-.799 11.531-3.618a116 116 0 0 1 13.057-9.192c2.904-1.756 6.198-3.324 9.503-3.89 37.762-6.47 75.59-12.562 113.324-19.192 7.289-1.281 13.744.062 20.499 2.102q44.462 13.426 89.037 26.479c3.678 1.077 5.935 2.994 7.728 6.321 6.63 12.305 13.156 24.694 20.475 36.587 3.344 5.434 7.912 10.433 12.853 14.503 12.85 10.583 19.204 23.948 22.223 40.26 5.027 27.16 11.852 53.984 17.696 80.998.542 2.508.173 5.7-.947 8.005-14.268 29.353-28.753 58.6-43.179 87.877-4.931 10.008-9.98 19.962-14.677 30.08-1.033 2.224-1.512 5.18-1.035 7.556 3.341 16.651 6.891 33.263 10.705 49.812.443 1.923 2.686 3.698 4.499 4.963 1.719 1.2 3.939 1.73 5.99 2.397 4.71 1.534 7.088 4.675 8.363 9.544 5.02 19.165 10.332 38.256 15.772 57.307 1.057 3.702.08 5.474-3.255 6.929-34.26 14.94-66.76 33.215-98.664 52.572-14.518 8.808-28.76 18.073-43.426 27.331M220.82 328.314c-4.59-.528-9.19-1.543-13.767-1.449-4.624.096-5.924-1.505-5.897-5.977.162-26.33.058-52.662.082-78.993.017-18.498.18-36.996.08-55.493-.02-3.918 1.341-5.433 5.212-5.151 2.648.192 5.34.108 7.992-.11 9.392-.772 16.185-8.24 16.24-17.714.054-9.608-6.051-16.558-15.56-17.53-2.974-.303-6.003-.488-8.976-.285-3.939.269-5.147-1.221-5.09-5.155.218-14.829.11-29.663.123-44.495.002-1.916 0-3.833 0-6.03-1.408.229-2.068.261-2.682.447-18.21 5.501-33.296 15.71-45.476 30.27-2.42 2.893-4.788 5.458-4.784 9.932.103 143.154.039 286.307.02 429.46 0 1.425.28 2.85.42 4.196h358.86V552.59H201.327c0-21.273-.143-41.922.067-62.567.091-8.97-1.597-7.992 8.439-8.17 1.664-.03 3.342-.037 4.988-.253 9.47-1.238 16.337-9.36 15.887-18.712-.47-9.749-7.486-16.571-17.477-16.937-2.33-.086-4.694-.248-6.993.035-4.164.512-5.043-1.415-5.02-5.185.139-21.997.063-43.996.087-65.993.013-11.568.04-11.568 11.49-12.34 9.09-.613 15.337-5.562 17.45-13.827 1.984-7.753-1.206-15.042-9.426-20.328m70.014 148.436H432.86v-11.136c-.845-.187-1.327-.387-1.808-.387-47.127.006-94.254.058-141.381-.016-3.477-.006-4.451 1.424-4.052 4.47.39 2.975-2.04 7.704 5.214 7.069M391.5 236.45h41.299v-11.215H286.142v11.227c35.074 0 69.716 0 105.358-.013m-11-90.532c-8.992-.008-17.984-.024-26.975-.024-20.98 0-41.962.081-62.941-.061-3.653-.025-5.277.93-4.792 4.768.26 2.05.046 4.16.046 6.334h146.906v-11.018zm-66.24 239.7h-28.149v11.336h4.424c37.307.003 74.614.018 111.921 0 9.198-.005 9.204-.057 8.563-9.328-.032-.458-.325-.899-.74-1.986-31.606 0-63.368 0-96.019-.023m34.24-68.428h52.277v-11.22c-2.114 0-3.762.002-5.41 0-33.498-.047-66.997-.077-100.495-.154-10.093-.023-10.094-.084-8.942 10.232.016.141.168.267.75 1.144 19.94 0 40.38 0 61.82-.002M688.65 460.08l-4.884 8.269c1.99 1.006 3.569 1.58 4.893 2.514 4.32 3.05 6.628 1.678 9.14-2.763 8.007-14.163 16.556-28.019 24.81-42.044 4.51-7.667 8.844-15.437 13.354-23.328-1.565-.969-2.5-1.635-3.508-2.159-6.72-3.487-6.64-3.427-10.496 3.123-10.95 18.605-21.978 37.165-33.31 56.388m31.335-155.634c1.978-1.519 3.886-3.14 5.947-4.536 7.122-4.826 8.554-11.371 6.065-19.219-1.005-3.168-1.848-6.388-2.808-9.57-1.896-6.286-4.424-7.785-11.082-6.843-2.836.401-4.244 1.41-3.26 4.598 1.323 4.283 2.095 8.746 3.578 12.965 1.603 4.563.79 7.794-3.294 10.674a91 91 0 0 0-11.755 9.914c-2.175 2.172-3.316 5.177-.03 7.77 2.749 2.17 5.385 3.803 8.661.563 2.23-2.206 4.924-3.941 7.978-6.316"/><path fill="#EBEBEC" d="M524.656 652.284c51.572-.012 102.703 0 153.834.032 6.112.004 7.349 1.238 7.348 7.283-.006 55.962-.022 111.924-.057 167.886-.004 7.64-.913 8.464-8.749 8.46q-73.698-.029-147.397-.051c-8.97-.003-9.832-.786-9.832-9.553 0-54.962-.005-109.924.102-164.886.006-3.507-1.436-8.145 4.75-9.171M589.5 682.64h-37.787v122.243h102.166V682.641z"/><path fill="#EBEBEB" d="M882.08 719c-.01 9.162.026 17.825-.04 26.486-.057 7.445-.66 8.059-7.948 8.07-21.653.03-43.307.014-64.961.016h-6.776v53.362h5.52q34.731.003 69.463.011c6.415.002 7.252.791 7.317 7.132.06 5.663-.051 11.329.074 16.99.099 4.505-1.644 6.782-6.44 6.762-29.65-.128-59.3-.01-88.95-.248-16.093-.128-18.648-2.557-18.809-18.559-.294-29.312-.189-58.628-.151-87.942.008-6.61.953-7.378 7.642-7.387 22.32-.03 44.64-.03 66.96-.042h5.618v-37.189c-1.86-.096-3.475-.252-5.09-.253-23.154-.012-46.308-.002-69.462 0-7.405 0-7.98-.566-7.97-7.913.006-5.33.179-10.665.017-15.99-.126-4.159 1.42-6.163 5.771-6.157 33.814.05 67.629-.013 101.443.033 5.59.007 6.857 1.483 6.855 7.346-.006 18.324-.051 36.648-.083 55.472M215 652.244c19.161.003 37.823-.005 56.484.02 8.632.011 9.39 1.263 5.514 8.8-2.64 5.133-5.242 10.286-8.22 16.134 7.381 0 14.133-.047 20.884.014 5.902.053 6.652.841 6.65 6.642-.007 16.828.003 33.657-.057 50.485-.022 6.159-.922 6.943-6.921 6.942q-73.731-.016-147.462-.003c-9.26.002-9.544-.29-9.512-9.475.042-11.64.01-23.282.01-35.764-2.832.858-5.009 1.443-7.133 2.179-2.875.995-4.673.261-4.69-2.969-.034-6.662-.135-13.338.285-19.977.093-1.463 1.969-3.449 3.488-4.085 12.156-5.087 23.134-11.744 31.664-22.032.875-1.056 2.436-2.157 3.698-2.18 9.784-.18 19.572-.099 29.67-.099v5.37c8.325 0 16.736 0 25.648-.002m-24.43 24.974c12.149.032 24.299-.063 36.443.165 4.514.084 6.832-2.037 8.446-5.971-.869-.17-1.352-.349-1.835-.347-19.636.05-39.276-.073-58.903.384-2.934.069-5.804 2.865-8.704 4.4l.73 1.371c7.637 0 15.274 0 23.824-.002m53.975 24.093h19.43v-5.749h-33.178v5.755c4.512 0 8.64 0 13.748-.006m-79.902-2.736c-.199 3.377 2.347 2.58 4.157 2.608 8.161.12 16.33-.035 24.484.268 4.559.17 5.026-1.94 3.91-6.301-10.034 0-20.15-.056-30.264.112-.764.013-1.501 1.62-2.287 3.313m99.632 21.242c-.667-.58-1.329-1.66-2.001-1.667-10.43-.107-20.861-.075-31.495-.075v6.101c10.497 0 20.626.095 30.746-.153.958-.024 1.863-2.198 2.75-4.206m-97.099-1.815c-4.563.914-2.06 3.649-1.881 5.824h32.538l-.336-5.83c-10.178 0-19.811 0-30.32.006"/><path fill="#EBEBEC" d="M394.554 837.36c-13.113-.503-25.137-3.604-36.593-8.887-2.811-1.297-4.481-.973-4.99 2.234-.958 6.029-4.672 7.648-10.362 7.3-6.138-.374-12.32-.014-18.482-.014-6.332 0-6.518-.663-4.64-6.583 4.918-15.513 11.202-30.856 13.761-46.779 2.485-15.458 1.031-31.55 1.273-47.365.066-4.28.01-8.563.01-13.346-4.749 0-8.862-.017-12.975.006-3.411.019-5.402-1.522-5.43-5.045-.052-6.662-.008-13.325-.027-19.987-.008-3.125 1.641-4.607 4.638-4.603 13.822.02 27.644.092 41.467.128 4.137.011 4.236 2.866 4.227 5.859-.05 15.99.004 31.98-.158 47.97-.16 15.792.87 31.65-2.63 47.297-.291 1.3 1.871 4.026 3.486 4.73 9.852 4.292 20.174 6.8 31.003 6.824l93.943.203c1.499.003 2.998-.042 4.496-.01 6.006.124 6.844.989 6.856 7.08.01 5.662-.033 11.325.007 16.987.036 5.195-1.064 6.368-6.485 6.357-11.659-.024-23.316-.138-34.975-.174-22.319-.07-44.638-.11-67.42-.182"/><path fill="#EAEAEA" d="M249 837.51c-36.316.038-72.13.08-107.945.111-7.59.007-8.35-.744-8.347-8.23.009-17.323 0-34.647.074-51.97.026-6.128.748-6.916 6.988-6.928 44.309-.085 88.619-.09 132.928-.13 5.83-.006 11.663.01 17.49-.141 4.331-.113 6.242 1.395 6.175 6.138-.254 17.986-.154 35.979-.157 53.969-.001 6.273-.948 7.206-7.233 7.19-13.158-.031-26.316-.01-39.974-.01m14.15-34.993v-12.511h-96.882v6.068c6.11 0 11.908-.002 17.706 0 22.16.014 44.322.118 66.482-.033 4.462-.03 6.715 1.14 5.86 5.935-.144.806-.007 1.663.004 2.496.096 7.06-.529 7.696-7.586 7.687l-76.975-.091c-1.775-.002-3.55 0-5.566 0v6.229h96.959c0-5.182 0-9.985-.002-15.78"/><path fill="#ECEBEC" d="M486.102 707c-.021 18.983-.066 37.466-.05 55.95.006 7.441.797 8.16 8.412 8.297 1.331.024 2.664.024 3.995.07 3.016.103 4.576 1.599 4.556 4.696-.044 6.66-.048 13.322-.061 19.982-.007 3.56-1.935 5.189-5.335 5.103-7.32-.184-14.678-.061-21.948-.79-12.752-1.278-19.79-8.428-19.98-21.271-.417-28.3-.228-56.61-.285-84.915-.007-3.481 0-6.963 0-11.238h-5.936c-22.479.015-44.959.047-67.438.036-7.244-.003-8.01-.799-7.981-8.039.02-5.327.073-10.656.203-15.981.082-3.345 1.585-5.05 5.266-5.041 33.635.074 67.271.063 100.907-.011 4.785-.01 5.86 2.581 5.829 6.693-.12 15.32-.112 30.64-.154 46.459"/><path fill="#EAEAEA" d="M700.705 724.787c.019-5.968.163-11.468.012-16.959-.107-3.9 1.266-5.975 5.412-5.94 12.656.106 25.313.122 37.97.168 4.603.017 4.712 3.155 4.703 6.556-.073 27.647-.1 55.295-.142 82.943-.002 1.462 0 2.924 0 5.214 3.857-.893 7.17-1.677 10.49-2.424 3.765-.847 5.725.445 5.678 4.54-.096 8.327-.13 16.657-.022 24.983.039 2.965-1.063 4.805-3.932 5.472-12.644 2.941-25.273 5.953-37.954 8.726-4.755 1.04-5.535-2.138-5.527-5.972.04-19.986.011-39.972.008-59.958v-40.227c-3.448 0-6.717-.16-9.965.037-4.875.295-7.257-1.668-6.73-7.159"/><path fill="#EBEBEB" d="M372.997 730.988c.311-14.957-3.199-14.642 14.23-14.563 2.784.012 5.567.001 8.785.001 0-7.387-.04-14.173.012-20.958.043-5.613 1.181-6.794 6.691-6.844 5.665-.052 11.342.253 16.995 0 4.923-.22 6.518 2.136 6.455 6.615-.095 6.805-.025 13.613-.025 21.183 5.493 0 10.734-.042 15.974.01 6.62.067 7.09.572 7.1 7.105.007 5-.111 10.004.055 14.998.15 4.533-1.93 6.321-6.332 6.199-5.31-.148-10.629-.035-16.694-.035v7.144c-.002 13.831.015 27.663-.015 41.494-.015 6.5-1.152 7.652-7.497 7.7-5.166.039-10.333.048-15.499-.016-6.212-.077-7.137-.987-7.161-7.363-.057-14.999-.029-29.998-.048-44.996-.001-1.129-.104-2.258-.188-3.948-5.222 0-10.16.01-15.099-.002-6.96-.018-7.747-.803-7.773-7.735-.007-1.833.018-3.666.034-5.99"/><path fill="#ECECEC" d="M121.286 748.83c.651-.65 1.302-1.298 2.739-2.018 58.76-.084 116.734-.092 174.708-.123 1.81-.001 3.618-.242 5.427-.37.43.15.86.301 1.704.83.781.848 1.147 1.319 1.513 1.79-.556 5.274-1.113 10.548-2.44 16.052-45.068.203-89.365.138-133.662.168-15.474.01-30.948.256-46.422.395-1.015-.597-2.03-1.194-3.15-2.557-.21-5.233-.314-9.7-.417-14.167"/><path fill="#E6E6E6" d="M833.666 545.618c-17.535 9.959-34.88 19.509-51.826 29.72-4.669 2.814-7.545 3.092-10.598-1.439-1.005-1.492-2.333-2.766-3.91-4.602 2.172-1.55 4.083-3.036 6.11-4.343 30.156-19.438 61.633-36.295 95.375-48.714.469-.173.926-.377 1.398-.539 6.623-2.273 10.498.353 10.56 7.57.01 1.176-1.849 2.876-3.219 3.476-14.473 6.337-29.021 12.5-43.89 18.87"/><path fill="#E9E9E9" d="M592.01 522.887c4.65 8.295 8.995 16.345 13.698 24.18 1.544 2.572 1.27 4.052-.906 5.855-10.86 8.994-21.648 18.074-32.9 27.49-.177-1.35-.452-2.382-.424-3.405.459-16.77 1.18-33.537 1.363-50.31.114-10.503.803-12.237 11.101-17.832 2.628 4.552 5.266 9.122 8.069 14.022"/><path fill="#EAE9EA" d="M747.646 690.78c-7.105-.03-13.752-.2-20.39-.03-3.366.088-5.22-1.133-6.2-4.36-3.131-10.32-6.39-20.602-9.655-30.88-1.188-3.74-.304-5.728 3.992-5.661 7.306.114 14.63-.207 21.911.235 1.956.119 4.886 1.942 5.493 3.65 3.664 10.31 6.835 20.8 10.06 31.264 1.267 4.11-.565 5.99-5.211 5.782M348.009 685.167c-16.582-.215-13.723 2.433-18.105-12.964-1.777-6.243-3.478-12.511-5.446-18.694-1.1-3.457-.17-5.165 3.461-5.189 7.83-.051 15.674-.315 23.476.137 1.839.107 4.501 2.375 5.13 4.214 3.066 8.967 5.6 18.118 8.258 27.222.952 3.262-.197 5.263-3.785 5.307-4.164.051-8.33-.018-12.99-.033"/><path fill="#DEDDDD" d="M922.181 82.12c-.658 13.866-8.385 24.205-20.316 27.599-12.88 3.663-26.834-.997-33.642-11.238-7.236-10.883-5.66-25.931 3.699-35.306 9.594-9.609 26.018-10.632 35.297-4.523 8.626 5.679 14.44 12.465 14.962 23.469m-16.745 21c7.848-4.755 12.353-11.458 12-20.895-.363-9.714-5.342-16.416-13.85-20.683-8.77-4.4-20.411-2.646-27.953 4.138-6.686 6.015-9.1 16.632-5.838 25.679 4.816 13.355 20.764 18.892 35.64 11.761"/><path fill="#DDDCDB" d="M910.543 644.422c15.606-4.03 28.671 5.197 28.526 19.741-.101 10.233-8.003 19.318-18.026 20.727-10.509 1.478-20.694-4.64-23.406-14.318-2.506-8.945.137-21.708 12.906-26.15m20.827 29.274c.42-.715.892-1.405 1.253-2.149 3.122-6.416 2.052-14.108-2.623-19.002-4.34-4.542-12.888-6.09-18.996-3.44-5.984 2.597-10.03 9.255-9.747 16.043.245 5.892 4.733 12.149 10.188 14.204 6.716 2.53 14.026.618 19.925-5.656"/><path fill="#464646" d="M303.93 746.03a20.8 20.8 0 0 1-5.197.659c-57.974.031-115.948.04-174.393-.033.993-.553 2.455-1.429 3.917-1.43 57.347-.05 114.694-.024 172.04.02 1.135 0 2.269.323 3.633.784M125.045 765.877c15.282-.462 30.756-.707 46.23-.718 44.297-.03 88.594.035 133.364.12-.973.545-2.418 1.459-3.864 1.46-57.388.063-114.775.047-172.163.01-1.125 0-2.25-.358-3.567-.872M121 749.06c.39 4.237.493 8.704.493 13.637-.328-4.158-.554-8.782-.493-13.637M307.563 748.74c-.552-.272-.918-.743-1.367-1.509.462.241 1.007.776 1.367 1.51"/><path fill="#0E0D0E" d="M221.165 328.5c7.874 5.1 11.064 12.389 9.08 20.142-2.113 8.265-8.36 13.214-17.45 13.827-11.45.772-11.477.772-11.49 12.34-.024 21.997.052 43.996-.086 65.993-.024 3.77.855 5.697 5.02 5.185 2.298-.283 4.662-.12 6.992-.035 9.99.366 17.008 7.188 17.477 16.937.45 9.352-6.418 17.474-15.887 18.712-1.646.216-3.324.224-4.988.253-10.036.178-8.348-.8-8.439 8.17-.21 20.645-.067 41.294-.067 62.567h306.29v11.646H148.755c-.14-1.347-.42-2.771-.42-4.196.019-143.153.083-286.306-.02-429.46-.004-4.474 2.365-7.039 4.784-9.932 12.18-14.56 27.265-24.769 45.476-30.27.614-.186 1.274-.218 2.682-.447 0 2.197.002 4.114 0 6.03-.013 14.832.095 29.666-.123 44.495-.057 3.934 1.151 5.424 5.09 5.155 2.973-.203 6.002-.018 8.976.286 9.509.971 15.614 7.921 15.56 17.53-.055 9.473-6.848 16.94-16.24 17.713-2.652.218-5.344.302-7.992.11-3.87-.282-5.233 1.233-5.211 5.151.1 18.497-.064 36.995-.081 55.493-.024 26.331.08 52.663-.082 78.993-.027 4.472 1.273 6.073 5.897 5.977 4.577-.094 9.177.921 14.113 1.634m-55.97 144.56c7.278 10.663 18.124 7.041 27.946 7.712.36-1.129.629-1.583.63-2.038.042-8.139.066-16.277.063-24.415-.003-7.066-.02-7.08-6.847-7.122-2.323-.014-4.658-.066-6.969.125-14.142 1.173-20.57 11.807-14.824 25.738m28.423-325.198c-6.117-.218-12.31-1.126-18.33-.466-6.38.7-11.553 6.73-12.248 12.833-.801 7.037.827 13.143 7.334 17.208 7.268 4.54 15.113 1.849 23.398 2.603 0-10.766 0-21-.154-32.178m.184 192.667v-12.817c-6.52.295-12.228.019-17.74.928-8.058 1.329-13.19 8.195-13.221 16.41-.03 7.776 4.984 14.649 12.623 15.69 5.824.793 11.842.157 18.345.157 0-6.486 0-12.932-.007-20.368"/><path fill="#1A1A1A" d="M290.377 476.75c-6.799.635-4.368-4.094-4.758-7.07-.4-3.045.575-4.475 4.052-4.47 47.127.075 94.254.023 141.381.017.481 0 .963.2 1.808.387v11.136z"/><path fill="#141414" d="M391 236.455c-35.142.007-69.784.007-104.858.007v-11.227h146.657v11.214c-13.794 0-27.547 0-41.8.006"/><path fill="#101010" d="M381 145.916h51.744v11.018H285.838c0-2.173.214-4.284-.046-6.334-.485-3.837 1.14-4.793 4.792-4.768 20.98.142 41.96.06 62.94.06 8.992.001 17.984.017 27.476.024"/><path fill="#121213" d="M314.705 385.628c32.206.01 63.968.01 95.574.01.415 1.088.708 1.529.74 1.987.641 9.27.635 9.323-8.563 9.328-37.307.018-74.614.003-111.921 0h-4.424v-11.337c9.306 0 18.728 0 28.594.012"/><path fill="#0F0F0F" d="M348 317.189h-61.32c-.582-.876-.734-1.002-.75-1.143-1.152-10.316-1.151-10.255 8.942-10.232 33.498.077 66.997.107 100.495.154 1.648.002 3.296 0 5.41 0v11.22z"/><path fill="#161616" d="M688.817 459.758c11.164-18.901 22.191-37.461 33.142-56.066 3.856-6.55 3.776-6.61 10.496-3.123 1.009.524 1.943 1.19 3.508 2.159-4.51 7.891-8.844 15.661-13.355 23.328-8.253 14.025-16.802 27.88-24.81 42.044-2.51 4.44-4.819 5.812-9.14 2.763-1.323-.934-2.902-1.508-4.892-2.514 1.734-2.937 3.31-5.603 5.05-8.591M719.7 304.66c-2.77 2.16-5.465 3.896-7.694 6.102-3.276 3.24-5.912 1.607-8.661-.563-3.286-2.593-2.145-5.598.03-7.77a91 91 0 0 1 11.755-9.914c4.084-2.88 4.897-6.11 3.294-10.674-1.483-4.22-2.255-8.682-3.578-12.965-.984-3.188.424-4.197 3.26-4.598 6.658-.942 9.186.557 11.082 6.842.96 3.183 1.803 6.403 2.808 9.571 2.489 7.848 1.057 14.393-6.065 19.219-2.061 1.396-3.969 3.017-6.23 4.75"/><path fill="#0C0C0C" d="M590 682.64h63.879v122.244H551.713V682.641zm-31.751 50.325c-.019 5.665-.057 11.33-.05 16.996.006 7.216.844 8.08 8.03 8.083 18.164.008 36.327-.025 54.49-.028 6.998-.001 13.999-.06 20.995.088 4.48.095 6.27-1.72 6.043-6.31-.312-6.317-.182-12.662-.064-18.991.076-4.099-1.416-6.155-5.81-6.137-25.994.109-51.989.108-77.983.104-3.635-.001-5.715 1.443-5.651 6.195"/><path fill="#252424" d="m190.114 677.219-23.367.001-.73-1.372c2.9-1.534 5.77-4.33 8.704-4.399 19.627-.457 39.267-.334 58.903-.384.483-.002.966.177 1.835.347-1.614 3.934-3.932 6.055-8.446 5.97-12.144-.227-24.294-.132-36.899-.163M244.056 701.314c-4.618.003-8.746.003-13.258.003v-5.755h33.178v5.749c-6.565 0-12.997 0-19.92.003M164.662 698.162c.768-1.28 1.505-2.887 2.27-2.9 10.112-.168 20.229-.112 30.263-.112 1.116 4.361.649 6.471-3.91 6.301-8.153-.303-16.323-.148-24.484-.268-1.81-.027-4.356.77-4.139-3.021"/><path fill="#201F1E" d="M264.297 720.233c-.908 1.592-1.813 3.766-2.771 3.79-10.12.248-20.25.153-30.746.153v-6.101c10.634 0 21.065-.032 31.495.075.672.006 1.334 1.086 2.022 2.083"/><path fill="#212021" d="M167.615 717.999c10.072-.003 19.705-.003 29.883-.003l.336 5.83h-32.538c-.18-2.175-2.682-4.91 2.32-5.827M263.15 803.012v15.284h-96.958v-6.23h5.566q38.488.048 76.975.092c7.057.009 7.682-.627 7.586-7.687-.011-.833-.148-1.69-.005-2.496.856-4.796-1.397-5.965-5.86-5.935-22.16.151-44.32.047-66.481.034-5.798-.003-11.596 0-17.706 0v-6.07h96.882z"/><path fill="#191818" d="M905.113 103.315c-14.554 6.937-30.502 1.4-35.318-11.955-3.262-9.047-.848-19.664 5.838-25.679 7.542-6.784 19.183-8.538 27.953-4.138 8.508 4.267 13.487 10.969 13.85 20.683.353 9.437-4.152 16.14-12.323 21.089m.959-23.856s.037.016.125-.864c-1.327-2.801-1.913-6.599-4.108-8.23-9.485-7.052-22.001-1.494-23.479 10.128-.308 2.422-.004 4.964.306 7.413.656 5.174 3.725 8.563 8.67 9.78 6.1 1.502 12.256.961 16.632-3.9 3.611-4.014 4.403-9.165 1.854-14.327"/><path fill="#201F1E" d="M931.125 673.98c-5.654 5.99-12.964 7.903-19.68 5.372-5.455-2.055-9.943-8.312-10.188-14.204-.282-6.788 3.763-13.446 9.747-16.043 6.108-2.65 14.656-1.102 18.996 3.44 4.675 4.894 5.745 12.586 2.623 19.002-.361.744-.833 1.434-1.498 2.434m-4.707-17.683c-2.818-6.275-8.477-3.67-13.108-4.108-2.918-.277-4.191 1.474-4.137 4.292.105 5.47.035 10.952.442 16.398.09 1.195 1.875 2.263 2.879 3.39l1.273-.859.566-9.185c5.399-.85 5.74 3.997 7.197 6.435 2.02 3.379 3.313 2.468 5.464.822l-4.693-7.725c3.989-1.581 5.037-4.725 4.117-9.46"/><path fill="#E6E6E6" d="M165.007 472.722c-5.558-13.594.869-24.228 15.011-25.4 2.31-.192 4.646-.14 6.97-.126 6.827.042 6.843.056 6.846 7.122q.003 12.207-.062 24.415c-.002.455-.271.91-.63 2.038-9.823-.67-20.67 2.95-28.135-8.049"/><path fill="#E9E9E9" d="M193.694 148.333c.077 10.706.077 20.94.077 31.706-8.285-.754-16.13 1.937-23.398-2.603-6.507-4.065-8.135-10.17-7.334-17.208.695-6.103 5.867-12.133 12.249-12.833 6.02-.66 12.212.248 18.406.938M193.805 341.024c.003 6.94.003 13.386.003 19.872-6.503 0-12.521.636-18.345-.157-7.639-1.041-12.652-7.914-12.623-15.69.03-8.215 5.163-15.081 13.22-16.41 5.513-.91 11.221-.633 17.74-.928 0 4.661 0 8.74.005 13.313"/><path fill="#ECEBEC" d="M558.253 732.514c-.068-4.3 2.012-5.744 5.647-5.743 25.994.004 51.989.005 77.983-.104 4.394-.018 5.886 2.038 5.81 6.137-.118 6.33-.248 12.674.064 18.99.227 4.59-1.563 6.406-6.043 6.311-6.996-.147-13.997-.09-20.995-.088-18.163.003-36.326.036-54.49.028-7.186-.004-8.024-.867-8.03-8.083-.007-5.665.031-11.33.054-17.448"/><path fill="#DEDDDD" d="M906.087 79.42c2.534 5.201 1.742 10.352-1.87 14.365-4.375 4.862-10.53 5.403-16.63 3.901-4.946-1.217-8.015-4.606-8.67-9.78-.311-2.45-.615-4.99-.307-7.413 1.478-11.622 13.994-17.18 23.479-10.129 2.195 1.632 2.781 5.43 3.692 8.589-1.635-.868-2.642-2.602-4.116-3.218-3.584-1.497-7.38-3.394-11.1-3.417-4.154-.025-7.091 2.974-7.626 9.003zm-8.86 5.405H883.1c.988 6.899 3.725 9.403 9.215 9.494 6.155.103 9.109-2.506 10.18-9.502-1.509 0-2.93 0-5.266.008"/><path fill="#212021" d="M906.08 79.44c-7.575.602-15.157 1.225-23.14 1.88.534-6.028 3.471-9.027 7.625-9.002 3.72.023 7.516 1.92 11.1 3.417 1.474.616 2.481 2.35 4.072 3.658.372.082.335.066.343.047"/><path fill="#DDDCDB" d="M926.536 656.678c.802 4.355-.246 7.499-4.235 9.08l4.693 7.725c-2.151 1.646-3.444 2.557-5.464-.822-1.457-2.438-1.798-7.286-7.197-6.435l-.566 9.185-1.273.859c-1.004-1.127-2.79-2.195-2.879-3.39-.407-5.446-.337-10.929-.442-16.398-.054-2.818 1.22-4.569 4.137-4.292 4.631.438 10.29-2.167 13.226 4.488m-5.99 4.606 1.068-3.681c-2.05-.33-4.265-1.256-6.084-.752-.984.273-1.292 2.985-2.298 5.63 3.108-.394 4.834-.612 7.314-1.197"/><path fill="#191818" d="M897.685 84.82c1.878-.003 3.3-.003 4.809-.003-1.071 6.996-4.025 9.605-10.18 9.502-5.49-.091-8.227-2.595-9.215-9.494 4.805 0 9.467 0 14.586-.004"/><path fill="#252424" d="M920.169 661.467c-2.103.402-3.829.62-6.937 1.015 1.006-2.646 1.314-5.358 2.298-5.63 1.82-.505 4.034.42 6.084.751-.356 1.227-.712 2.454-1.445 3.864"/></svg>